<mxfile host="Electron" modified="2023-06-11T04:23:08.281Z" agent="Mozilla/5.0 (Windows NT 10.0; Win64; x64) AppleWebKit/537.36 (KHTML, like Gecko) draw.io/21.3.7 Chrome/112.0.5615.204 Electron/24.5.0 Safari/537.36" etag="EN-FrDqszg4aY5_8GCnt" version="21.3.7" type="device">
  <diagram id="prtHgNgQTEPvFCAcTncT" name="Page-1">
    <mxGraphModel dx="3912" dy="3656" grid="0" gridSize="10" guides="1" tooltips="1" connect="1" arrows="1" fold="1" page="1" pageScale="1" pageWidth="1200" pageHeight="1920" math="0" shadow="0">
      <root>
        <mxCell id="0" />
        <mxCell id="1" parent="0" />
        <mxCell id="Do2Q6mcpjUpiM5cCAcLP-162" value="" style="rounded=0;whiteSpace=wrap;html=1;" parent="1" vertex="1">
          <mxGeometry x="825" y="666" width="945" height="539" as="geometry" />
        </mxCell>
        <mxCell id="Do2Q6mcpjUpiM5cCAcLP-72" value="" style="group" parent="1" vertex="1" connectable="0">
          <mxGeometry x="108" y="655" width="591" height="474" as="geometry" />
        </mxCell>
        <mxCell id="Do2Q6mcpjUpiM5cCAcLP-70" value="" style="group" parent="Do2Q6mcpjUpiM5cCAcLP-72" vertex="1" connectable="0">
          <mxGeometry y="29" width="591" height="445" as="geometry" />
        </mxCell>
        <mxCell id="Do2Q6mcpjUpiM5cCAcLP-69" value="" style="rounded=0;whiteSpace=wrap;html=1;" parent="Do2Q6mcpjUpiM5cCAcLP-70" vertex="1">
          <mxGeometry width="591" height="445" as="geometry" />
        </mxCell>
        <mxCell id="Do2Q6mcpjUpiM5cCAcLP-27" value="&lt;font style=&quot;font-size: 12px;&quot;&gt;网&lt;br&gt;络&lt;br&gt;连&lt;br&gt;接&lt;/font&gt;" style="rounded=0;whiteSpace=wrap;html=1;" parent="Do2Q6mcpjUpiM5cCAcLP-70" vertex="1">
          <mxGeometry x="105" y="160" width="60" height="153" as="geometry" />
        </mxCell>
        <mxCell id="Do2Q6mcpjUpiM5cCAcLP-40" value="事件分发" style="rounded=0;whiteSpace=wrap;html=1;" parent="Do2Q6mcpjUpiM5cCAcLP-70" vertex="1">
          <mxGeometry x="198" y="206.5" width="76" height="60" as="geometry" />
        </mxCell>
        <mxCell id="Do2Q6mcpjUpiM5cCAcLP-45" value="" style="edgeStyle=orthogonalEdgeStyle;rounded=0;orthogonalLoop=1;jettySize=auto;html=1;" parent="Do2Q6mcpjUpiM5cCAcLP-70" source="Do2Q6mcpjUpiM5cCAcLP-27" target="Do2Q6mcpjUpiM5cCAcLP-40" edge="1">
          <mxGeometry relative="1" as="geometry" />
        </mxCell>
        <mxCell id="Do2Q6mcpjUpiM5cCAcLP-41" value="请求响应" style="rounded=0;whiteSpace=wrap;html=1;" parent="Do2Q6mcpjUpiM5cCAcLP-70" vertex="1">
          <mxGeometry x="295" y="100" width="76" height="60" as="geometry" />
        </mxCell>
        <mxCell id="Do2Q6mcpjUpiM5cCAcLP-47" style="edgeStyle=orthogonalEdgeStyle;rounded=0;orthogonalLoop=1;jettySize=auto;html=1;entryX=0;entryY=0.5;entryDx=0;entryDy=0;exitX=0.5;exitY=0;exitDx=0;exitDy=0;" parent="Do2Q6mcpjUpiM5cCAcLP-70" source="Do2Q6mcpjUpiM5cCAcLP-40" target="Do2Q6mcpjUpiM5cCAcLP-41" edge="1">
          <mxGeometry relative="1" as="geometry" />
        </mxCell>
        <mxCell id="Do2Q6mcpjUpiM5cCAcLP-42" value="数据转发" style="rounded=0;whiteSpace=wrap;html=1;" parent="Do2Q6mcpjUpiM5cCAcLP-70" vertex="1">
          <mxGeometry x="295" y="313" width="76" height="60" as="geometry" />
        </mxCell>
        <mxCell id="Do2Q6mcpjUpiM5cCAcLP-48" style="edgeStyle=orthogonalEdgeStyle;rounded=0;orthogonalLoop=1;jettySize=auto;html=1;entryX=0;entryY=0.5;entryDx=0;entryDy=0;exitX=0.5;exitY=1;exitDx=0;exitDy=0;" parent="Do2Q6mcpjUpiM5cCAcLP-70" source="Do2Q6mcpjUpiM5cCAcLP-40" target="Do2Q6mcpjUpiM5cCAcLP-42" edge="1">
          <mxGeometry relative="1" as="geometry" />
        </mxCell>
        <mxCell id="Do2Q6mcpjUpiM5cCAcLP-64" style="edgeStyle=orthogonalEdgeStyle;rounded=0;orthogonalLoop=1;jettySize=auto;html=1;endArrow=none;endFill=0;" parent="Do2Q6mcpjUpiM5cCAcLP-70" source="Do2Q6mcpjUpiM5cCAcLP-49" edge="1">
          <mxGeometry relative="1" as="geometry">
            <mxPoint x="554.4285714285713" y="130" as="targetPoint" />
          </mxGeometry>
        </mxCell>
        <mxCell id="Do2Q6mcpjUpiM5cCAcLP-49" value="登录请求" style="rounded=0;whiteSpace=wrap;html=1;" parent="Do2Q6mcpjUpiM5cCAcLP-70" vertex="1">
          <mxGeometry x="411" y="100" width="76" height="60" as="geometry" />
        </mxCell>
        <mxCell id="Do2Q6mcpjUpiM5cCAcLP-52" value="" style="edgeStyle=orthogonalEdgeStyle;rounded=0;orthogonalLoop=1;jettySize=auto;html=1;" parent="Do2Q6mcpjUpiM5cCAcLP-70" source="Do2Q6mcpjUpiM5cCAcLP-41" target="Do2Q6mcpjUpiM5cCAcLP-49" edge="1">
          <mxGeometry relative="1" as="geometry" />
        </mxCell>
        <mxCell id="Do2Q6mcpjUpiM5cCAcLP-62" style="edgeStyle=orthogonalEdgeStyle;rounded=0;orthogonalLoop=1;jettySize=auto;html=1;entryX=0.746;entryY=-0.104;entryDx=0;entryDy=0;entryPerimeter=0;" parent="Do2Q6mcpjUpiM5cCAcLP-70" source="Do2Q6mcpjUpiM5cCAcLP-50" edge="1">
          <mxGeometry relative="1" as="geometry">
            <mxPoint x="553.8400000000001" y="406.29600000000005" as="targetPoint" />
          </mxGeometry>
        </mxCell>
        <mxCell id="Do2Q6mcpjUpiM5cCAcLP-50" value="注册请求" style="rounded=0;whiteSpace=wrap;html=1;" parent="Do2Q6mcpjUpiM5cCAcLP-70" vertex="1">
          <mxGeometry x="411" y="14" width="76" height="60" as="geometry" />
        </mxCell>
        <mxCell id="Do2Q6mcpjUpiM5cCAcLP-53" style="edgeStyle=orthogonalEdgeStyle;rounded=0;orthogonalLoop=1;jettySize=auto;html=1;entryX=0;entryY=0.5;entryDx=0;entryDy=0;" parent="Do2Q6mcpjUpiM5cCAcLP-70" source="Do2Q6mcpjUpiM5cCAcLP-41" target="Do2Q6mcpjUpiM5cCAcLP-50" edge="1">
          <mxGeometry relative="1" as="geometry" />
        </mxCell>
        <mxCell id="Do2Q6mcpjUpiM5cCAcLP-65" style="edgeStyle=orthogonalEdgeStyle;rounded=0;orthogonalLoop=1;jettySize=auto;html=1;endArrow=none;endFill=0;" parent="Do2Q6mcpjUpiM5cCAcLP-70" source="Do2Q6mcpjUpiM5cCAcLP-51" edge="1">
          <mxGeometry relative="1" as="geometry">
            <mxPoint x="553.8571428571429" y="216" as="targetPoint" />
          </mxGeometry>
        </mxCell>
        <mxCell id="Do2Q6mcpjUpiM5cCAcLP-51" value="添加请求" style="rounded=0;whiteSpace=wrap;html=1;" parent="Do2Q6mcpjUpiM5cCAcLP-70" vertex="1">
          <mxGeometry x="411" y="186" width="76" height="60" as="geometry" />
        </mxCell>
        <mxCell id="Do2Q6mcpjUpiM5cCAcLP-54" style="edgeStyle=orthogonalEdgeStyle;rounded=0;orthogonalLoop=1;jettySize=auto;html=1;entryX=0;entryY=0.5;entryDx=0;entryDy=0;" parent="Do2Q6mcpjUpiM5cCAcLP-70" source="Do2Q6mcpjUpiM5cCAcLP-41" target="Do2Q6mcpjUpiM5cCAcLP-51" edge="1">
          <mxGeometry relative="1" as="geometry" />
        </mxCell>
        <mxCell id="Do2Q6mcpjUpiM5cCAcLP-66" style="edgeStyle=orthogonalEdgeStyle;rounded=0;orthogonalLoop=1;jettySize=auto;html=1;endArrow=none;endFill=0;" parent="Do2Q6mcpjUpiM5cCAcLP-70" source="Do2Q6mcpjUpiM5cCAcLP-56" edge="1">
          <mxGeometry relative="1" as="geometry">
            <mxPoint x="554" y="343" as="targetPoint" />
          </mxGeometry>
        </mxCell>
        <mxCell id="Do2Q6mcpjUpiM5cCAcLP-56" value="查找转发" style="rounded=0;whiteSpace=wrap;html=1;" parent="Do2Q6mcpjUpiM5cCAcLP-70" vertex="1">
          <mxGeometry x="411" y="313" width="76" height="60" as="geometry" />
        </mxCell>
        <mxCell id="Do2Q6mcpjUpiM5cCAcLP-57" value="" style="edgeStyle=orthogonalEdgeStyle;rounded=0;orthogonalLoop=1;jettySize=auto;html=1;" parent="Do2Q6mcpjUpiM5cCAcLP-70" source="Do2Q6mcpjUpiM5cCAcLP-42" target="Do2Q6mcpjUpiM5cCAcLP-56" edge="1">
          <mxGeometry relative="1" as="geometry" />
        </mxCell>
        <mxCell id="Do2Q6mcpjUpiM5cCAcLP-59" style="edgeStyle=orthogonalEdgeStyle;rounded=0;orthogonalLoop=1;jettySize=auto;html=1;entryX=0;entryY=0.5;entryDx=0;entryDy=0;" parent="Do2Q6mcpjUpiM5cCAcLP-70" target="Do2Q6mcpjUpiM5cCAcLP-27" edge="1">
          <mxGeometry relative="1" as="geometry">
            <mxPoint x="12" y="236" as="sourcePoint" />
          </mxGeometry>
        </mxCell>
        <mxCell id="Do2Q6mcpjUpiM5cCAcLP-60" value="数据接收" style="text;html=1;align=center;verticalAlign=middle;resizable=0;points=[];autosize=1;strokeColor=none;fillColor=none;" parent="Do2Q6mcpjUpiM5cCAcLP-70" vertex="1">
          <mxGeometry x="30" y="210" width="66" height="26" as="geometry" />
        </mxCell>
        <mxCell id="Do2Q6mcpjUpiM5cCAcLP-67" value="数据发送" style="text;html=1;align=center;verticalAlign=middle;resizable=0;points=[];autosize=1;strokeColor=none;fillColor=none;" parent="Do2Q6mcpjUpiM5cCAcLP-70" vertex="1">
          <mxGeometry x="520" y="407" width="66" height="26" as="geometry" />
        </mxCell>
        <mxCell id="Do2Q6mcpjUpiM5cCAcLP-71" value="服务器框架图" style="text;html=1;align=center;verticalAlign=middle;resizable=0;points=[];autosize=1;strokeColor=none;fillColor=none;" parent="Do2Q6mcpjUpiM5cCAcLP-72" vertex="1">
          <mxGeometry width="90" height="26" as="geometry" />
        </mxCell>
        <mxCell id="Do2Q6mcpjUpiM5cCAcLP-151" value="" style="edgeStyle=orthogonalEdgeStyle;rounded=0;orthogonalLoop=1;jettySize=auto;html=1;endArrow=classic;endFill=1;startArrow=classic;startFill=1;exitX=0;exitY=0.5;exitDx=0;exitDy=0;entryX=1;entryY=0.5;entryDx=0;entryDy=0;strokeWidth=1;" parent="1" source="9VKRFwBbV2IzOhiWQKv7-21" target="9VKRFwBbV2IzOhiWQKv7-20" edge="1">
          <mxGeometry relative="1" as="geometry">
            <mxPoint x="1790" y="351.48571428571427" as="sourcePoint" />
            <mxPoint x="1718" y="351.5" as="targetPoint" />
          </mxGeometry>
        </mxCell>
        <mxCell id="Do2Q6mcpjUpiM5cCAcLP-79" value="" style="edgeStyle=orthogonalEdgeStyle;rounded=0;orthogonalLoop=1;jettySize=auto;html=1;startArrow=classic;startFill=1;endArrow=classic;endFill=1;strokeWidth=1;" parent="1" source="Do2Q6mcpjUpiM5cCAcLP-80" edge="1">
          <mxGeometry relative="1" as="geometry">
            <mxPoint x="1850" y="351.48571428571427" as="targetPoint" />
          </mxGeometry>
        </mxCell>
        <mxCell id="Do2Q6mcpjUpiM5cCAcLP-80" value="通信管理" style="rounded=0;whiteSpace=wrap;html=1;container=0;" parent="1" vertex="1">
          <mxGeometry x="1884" y="321.5" width="76" height="60" as="geometry" />
        </mxCell>
        <mxCell id="Do2Q6mcpjUpiM5cCAcLP-81" style="edgeStyle=orthogonalEdgeStyle;rounded=0;orthogonalLoop=1;jettySize=auto;html=1;entryX=0.5;entryY=0;entryDx=0;entryDy=0;startArrow=classic;startFill=1;endArrow=classic;endFill=1;strokeWidth=1;" parent="1" source="Do2Q6mcpjUpiM5cCAcLP-82" target="Do2Q6mcpjUpiM5cCAcLP-80" edge="1">
          <mxGeometry relative="1" as="geometry" />
        </mxCell>
        <mxCell id="Do2Q6mcpjUpiM5cCAcLP-82" value="登录界面" style="rounded=0;whiteSpace=wrap;html=1;container=0;" parent="1" vertex="1">
          <mxGeometry x="1969" y="215" width="76" height="60" as="geometry" />
        </mxCell>
        <mxCell id="Do2Q6mcpjUpiM5cCAcLP-83" value="" style="edgeStyle=orthogonalEdgeStyle;rounded=0;orthogonalLoop=1;jettySize=auto;html=1;startArrow=classic;startFill=1;strokeWidth=1;" parent="1" source="Do2Q6mcpjUpiM5cCAcLP-84" target="Do2Q6mcpjUpiM5cCAcLP-80" edge="1">
          <mxGeometry relative="1" as="geometry" />
        </mxCell>
        <mxCell id="Do2Q6mcpjUpiM5cCAcLP-84" value="好友列表" style="rounded=0;whiteSpace=wrap;html=1;container=0;" parent="1" vertex="1">
          <mxGeometry x="1969" y="426" width="76" height="60" as="geometry" />
        </mxCell>
        <mxCell id="Do2Q6mcpjUpiM5cCAcLP-85" value="" style="edgeStyle=orthogonalEdgeStyle;rounded=0;orthogonalLoop=1;jettySize=auto;html=1;strokeWidth=1;" parent="1" source="Do2Q6mcpjUpiM5cCAcLP-86" target="Do2Q6mcpjUpiM5cCAcLP-84" edge="1">
          <mxGeometry relative="1" as="geometry" />
        </mxCell>
        <mxCell id="Do2Q6mcpjUpiM5cCAcLP-86" value="聊天窗口" style="rounded=0;whiteSpace=wrap;html=1;container=0;" parent="1" vertex="1">
          <mxGeometry x="2104" y="426" width="76" height="60" as="geometry" />
        </mxCell>
        <mxCell id="Do2Q6mcpjUpiM5cCAcLP-87" value="" style="edgeStyle=orthogonalEdgeStyle;rounded=0;orthogonalLoop=1;jettySize=auto;html=1;startArrow=none;startFill=0;endArrow=classic;endFill=1;strokeWidth=1;" parent="1" source="Do2Q6mcpjUpiM5cCAcLP-88" target="Do2Q6mcpjUpiM5cCAcLP-82" edge="1">
          <mxGeometry relative="1" as="geometry" />
        </mxCell>
        <mxCell id="Do2Q6mcpjUpiM5cCAcLP-88" value="注册界面" style="rounded=0;whiteSpace=wrap;html=1;container=0;" parent="1" vertex="1">
          <mxGeometry x="2104" y="215" width="76" height="60" as="geometry" />
        </mxCell>
        <mxCell id="Do2Q6mcpjUpiM5cCAcLP-89" style="edgeStyle=orthogonalEdgeStyle;rounded=0;orthogonalLoop=1;jettySize=auto;html=1;endArrow=none;endFill=0;strokeWidth=1;" parent="1" source="Do2Q6mcpjUpiM5cCAcLP-90" edge="1">
          <mxGeometry relative="1" as="geometry">
            <mxPoint x="2075.142857142857" y="456" as="targetPoint" />
          </mxGeometry>
        </mxCell>
        <mxCell id="Do2Q6mcpjUpiM5cCAcLP-90" value="聊天窗口" style="rounded=0;whiteSpace=wrap;html=1;container=0;" parent="1" vertex="1">
          <mxGeometry x="2104" y="356" width="76" height="60" as="geometry" />
        </mxCell>
        <mxCell id="Do2Q6mcpjUpiM5cCAcLP-91" style="edgeStyle=orthogonalEdgeStyle;rounded=0;orthogonalLoop=1;jettySize=auto;html=1;strokeColor=default;endArrow=none;endFill=0;strokeWidth=1;" parent="1" source="Do2Q6mcpjUpiM5cCAcLP-92" edge="1">
          <mxGeometry relative="1" as="geometry">
            <mxPoint x="2075" y="455" as="targetPoint" />
          </mxGeometry>
        </mxCell>
        <mxCell id="Do2Q6mcpjUpiM5cCAcLP-92" value="聊天窗口" style="rounded=0;whiteSpace=wrap;html=1;container=0;" parent="1" vertex="1">
          <mxGeometry x="2104" y="496" width="76" height="60" as="geometry" />
        </mxCell>
        <mxCell id="Do2Q6mcpjUpiM5cCAcLP-143" style="edgeStyle=orthogonalEdgeStyle;rounded=0;orthogonalLoop=1;jettySize=auto;html=1;entryX=1;entryY=0.5;entryDx=0;entryDy=0;strokeWidth=1;" parent="1" source="9VKRFwBbV2IzOhiWQKv7-20" target="Do2Q6mcpjUpiM5cCAcLP-131" edge="1">
          <mxGeometry relative="1" as="geometry">
            <mxPoint x="1658" y="351.5" as="sourcePoint" />
          </mxGeometry>
        </mxCell>
        <mxCell id="Do2Q6mcpjUpiM5cCAcLP-129" value="双向通信" style="text;html=1;align=center;verticalAlign=middle;resizable=0;points=[];autosize=1;strokeColor=none;fillColor=none;" parent="1" vertex="1">
          <mxGeometry x="1728" y="321.5" width="66" height="26" as="geometry" />
        </mxCell>
        <mxCell id="Do2Q6mcpjUpiM5cCAcLP-138" style="edgeStyle=orthogonalEdgeStyle;rounded=0;orthogonalLoop=1;jettySize=auto;html=1;entryX=1;entryY=0.5;entryDx=0;entryDy=0;exitX=0.5;exitY=0;exitDx=0;exitDy=0;strokeWidth=1;" parent="1" source="Do2Q6mcpjUpiM5cCAcLP-131" target="Do2Q6mcpjUpiM5cCAcLP-132" edge="1">
          <mxGeometry relative="1" as="geometry" />
        </mxCell>
        <mxCell id="Do2Q6mcpjUpiM5cCAcLP-139" style="edgeStyle=orthogonalEdgeStyle;rounded=0;orthogonalLoop=1;jettySize=auto;html=1;entryX=1;entryY=0.5;entryDx=0;entryDy=0;exitX=0.5;exitY=1;exitDx=0;exitDy=0;strokeWidth=1;" parent="1" source="Do2Q6mcpjUpiM5cCAcLP-131" target="Do2Q6mcpjUpiM5cCAcLP-133" edge="1">
          <mxGeometry relative="1" as="geometry" />
        </mxCell>
        <mxCell id="Do2Q6mcpjUpiM5cCAcLP-131" value="事件分发" style="rounded=0;whiteSpace=wrap;html=1;" parent="1" vertex="1">
          <mxGeometry x="1536" y="321.5" width="76" height="60" as="geometry" />
        </mxCell>
        <mxCell id="Do2Q6mcpjUpiM5cCAcLP-140" value="" style="edgeStyle=orthogonalEdgeStyle;rounded=0;orthogonalLoop=1;jettySize=auto;html=1;entryX=1.006;entryY=0.44;entryDx=0;entryDy=0;entryPerimeter=0;strokeWidth=1;" parent="1" source="Do2Q6mcpjUpiM5cCAcLP-132" target="Do2Q6mcpjUpiM5cCAcLP-135" edge="1">
          <mxGeometry relative="1" as="geometry" />
        </mxCell>
        <mxCell id="Do2Q6mcpjUpiM5cCAcLP-141" style="edgeStyle=orthogonalEdgeStyle;rounded=0;orthogonalLoop=1;jettySize=auto;html=1;entryX=1;entryY=0.5;entryDx=0;entryDy=0;strokeWidth=1;" parent="1" source="Do2Q6mcpjUpiM5cCAcLP-132" target="Do2Q6mcpjUpiM5cCAcLP-136" edge="1">
          <mxGeometry relative="1" as="geometry" />
        </mxCell>
        <mxCell id="Do2Q6mcpjUpiM5cCAcLP-142" style="edgeStyle=orthogonalEdgeStyle;rounded=0;orthogonalLoop=1;jettySize=auto;html=1;entryX=1;entryY=0.5;entryDx=0;entryDy=0;strokeWidth=1;" parent="1" source="Do2Q6mcpjUpiM5cCAcLP-132" target="Do2Q6mcpjUpiM5cCAcLP-134" edge="1">
          <mxGeometry relative="1" as="geometry" />
        </mxCell>
        <mxCell id="Do2Q6mcpjUpiM5cCAcLP-132" value="请求响应" style="rounded=0;whiteSpace=wrap;html=1;" parent="1" vertex="1">
          <mxGeometry x="1438" y="215" width="76" height="60" as="geometry" />
        </mxCell>
        <mxCell id="Do2Q6mcpjUpiM5cCAcLP-144" value="" style="edgeStyle=orthogonalEdgeStyle;rounded=0;orthogonalLoop=1;jettySize=auto;html=1;strokeWidth=1;" parent="1" source="Do2Q6mcpjUpiM5cCAcLP-133" target="Do2Q6mcpjUpiM5cCAcLP-137" edge="1">
          <mxGeometry relative="1" as="geometry" />
        </mxCell>
        <mxCell id="Do2Q6mcpjUpiM5cCAcLP-133" value="数据转发" style="rounded=0;whiteSpace=wrap;html=1;" parent="1" vertex="1">
          <mxGeometry x="1438" y="428" width="76" height="60" as="geometry" />
        </mxCell>
        <mxCell id="Do2Q6mcpjUpiM5cCAcLP-147" style="edgeStyle=orthogonalEdgeStyle;rounded=0;orthogonalLoop=1;jettySize=auto;html=1;endArrow=none;endFill=0;strokeWidth=1;" parent="1" source="Do2Q6mcpjUpiM5cCAcLP-134" edge="1">
          <mxGeometry relative="1" as="geometry">
            <mxPoint x="1284.7931034482758" y="244.9999999999999" as="targetPoint" />
          </mxGeometry>
        </mxCell>
        <mxCell id="Do2Q6mcpjUpiM5cCAcLP-134" value="登录请求" style="rounded=0;whiteSpace=wrap;html=1;" parent="1" vertex="1">
          <mxGeometry x="1321" y="215" width="76" height="60" as="geometry" />
        </mxCell>
        <mxCell id="Do2Q6mcpjUpiM5cCAcLP-146" style="edgeStyle=orthogonalEdgeStyle;rounded=0;orthogonalLoop=1;jettySize=auto;html=1;strokeWidth=1;exitX=0.5;exitY=1;exitDx=0;exitDy=0;" parent="1" source="9VKRFwBbV2IzOhiWQKv7-20" target="Do2Q6mcpjUpiM5cCAcLP-135" edge="1">
          <mxGeometry relative="1" as="geometry">
            <Array as="points">
              <mxPoint x="1688" y="513" />
              <mxPoint x="1284" y="513" />
              <mxPoint x="1284" y="159" />
            </Array>
            <mxPoint x="1688" y="428" as="sourcePoint" />
          </mxGeometry>
        </mxCell>
        <mxCell id="Do2Q6mcpjUpiM5cCAcLP-135" value="注册请求" style="rounded=0;whiteSpace=wrap;html=1;" parent="1" vertex="1">
          <mxGeometry x="1321" y="129" width="76" height="60" as="geometry" />
        </mxCell>
        <mxCell id="Do2Q6mcpjUpiM5cCAcLP-148" style="edgeStyle=orthogonalEdgeStyle;rounded=0;orthogonalLoop=1;jettySize=auto;html=1;endArrow=none;endFill=0;strokeWidth=1;" parent="1" source="Do2Q6mcpjUpiM5cCAcLP-136" edge="1">
          <mxGeometry relative="1" as="geometry">
            <mxPoint x="1284.7931034482758" y="331" as="targetPoint" />
          </mxGeometry>
        </mxCell>
        <mxCell id="Do2Q6mcpjUpiM5cCAcLP-136" value="添加请求" style="rounded=0;whiteSpace=wrap;html=1;" parent="1" vertex="1">
          <mxGeometry x="1321" y="301" width="76" height="60" as="geometry" />
        </mxCell>
        <mxCell id="Do2Q6mcpjUpiM5cCAcLP-150" style="edgeStyle=orthogonalEdgeStyle;rounded=0;orthogonalLoop=1;jettySize=auto;html=1;endArrow=none;endFill=0;strokeWidth=1;" parent="1" source="Do2Q6mcpjUpiM5cCAcLP-137" edge="1">
          <mxGeometry relative="1" as="geometry">
            <mxPoint x="1284" y="458" as="targetPoint" />
          </mxGeometry>
        </mxCell>
        <mxCell id="Do2Q6mcpjUpiM5cCAcLP-137" value="查找转发" style="rounded=0;whiteSpace=wrap;html=1;" parent="1" vertex="1">
          <mxGeometry x="1321" y="428" width="76" height="60" as="geometry" />
        </mxCell>
        <mxCell id="Do2Q6mcpjUpiM5cCAcLP-154" value="数据发送总线" style="text;html=1;align=center;verticalAlign=middle;resizable=0;points=[];autosize=1;strokeColor=none;fillColor=none;" parent="1" vertex="1">
          <mxGeometry x="1276" y="515" width="90" height="26" as="geometry" />
        </mxCell>
        <mxCell id="Do2Q6mcpjUpiM5cCAcLP-157" style="edgeStyle=orthogonalEdgeStyle;rounded=0;orthogonalLoop=1;jettySize=auto;html=1;" parent="1" edge="1">
          <mxGeometry relative="1" as="geometry">
            <mxPoint x="1598.9966666666664" y="-43" as="targetPoint" />
            <mxPoint x="1669" y="-43" as="sourcePoint" />
            <Array as="points">
              <mxPoint x="1753" y="-43" />
              <mxPoint x="1753" y="-43" />
            </Array>
          </mxGeometry>
        </mxCell>
        <mxCell id="Do2Q6mcpjUpiM5cCAcLP-159" style="edgeStyle=orthogonalEdgeStyle;rounded=0;orthogonalLoop=1;jettySize=auto;html=1;shape=link;" parent="1" edge="1">
          <mxGeometry relative="1" as="geometry">
            <mxPoint x="1597.002857142857" y="2.8600000000000136" as="targetPoint" />
            <mxPoint x="1753" y="3" as="sourcePoint" />
            <Array as="points">
              <mxPoint x="1664.86" y="2.8600000000000136" />
              <mxPoint x="1664.86" y="2.8600000000000136" />
            </Array>
          </mxGeometry>
        </mxCell>
        <mxCell id="Do2Q6mcpjUpiM5cCAcLP-160" value="双向数据流" style="text;html=1;align=center;verticalAlign=middle;resizable=0;points=[];autosize=1;strokeColor=none;fillColor=none;" parent="1" vertex="1">
          <mxGeometry x="1620" y="-23" width="78" height="26" as="geometry" />
        </mxCell>
        <mxCell id="Do2Q6mcpjUpiM5cCAcLP-161" value="&lt;span style=&quot;color: rgb(0, 0, 0); font-family: Helvetica; font-size: 12px; font-style: normal; font-variant-ligatures: normal; font-variant-caps: normal; font-weight: 400; letter-spacing: normal; orphans: 2; text-align: center; text-indent: 0px; text-transform: none; widows: 2; word-spacing: 0px; -webkit-text-stroke-width: 0px; background-color: rgb(251, 251, 251); text-decoration-thickness: initial; text-decoration-style: initial; text-decoration-color: initial; float: none; display: inline !important;&quot;&gt;单向数据流&lt;/span&gt;" style="text;whiteSpace=wrap;html=1;" parent="1" vertex="1">
          <mxGeometry x="1628.000476190476" y="-67.00190476190477" width="100" height="36" as="geometry" />
        </mxCell>
        <mxCell id="Do2Q6mcpjUpiM5cCAcLP-68" value="" style="rounded=0;whiteSpace=wrap;html=1;" parent="1" vertex="1">
          <mxGeometry x="-454" y="228" width="549" height="402" as="geometry" />
        </mxCell>
        <mxCell id="Do2Q6mcpjUpiM5cCAcLP-26" value="客户端框架图" style="text;html=1;align=center;verticalAlign=middle;resizable=0;points=[];autosize=1;strokeColor=none;fillColor=none;" parent="1" vertex="1">
          <mxGeometry x="11" y="44" width="90" height="26" as="geometry" />
        </mxCell>
        <mxCell id="Do2Q6mcpjUpiM5cCAcLP-33" style="edgeStyle=orthogonalEdgeStyle;rounded=0;orthogonalLoop=1;jettySize=auto;html=1;exitX=0;exitY=0.25;exitDx=0;exitDy=0;" parent="1" source="Do2Q6mcpjUpiM5cCAcLP-6" edge="1">
          <mxGeometry relative="1" as="geometry">
            <mxPoint x="136.99999999999997" y="304.20000000000005" as="targetPoint" />
          </mxGeometry>
        </mxCell>
        <mxCell id="Do2Q6mcpjUpiM5cCAcLP-6" value="&lt;font style=&quot;font-size: 12px;&quot;&gt;网&lt;br&gt;络&lt;br&gt;连&lt;br&gt;接&lt;/font&gt;" style="rounded=0;whiteSpace=wrap;html=1;" parent="1" vertex="1">
          <mxGeometry x="226.6" y="266" width="60" height="153" as="geometry" />
        </mxCell>
        <mxCell id="Do2Q6mcpjUpiM5cCAcLP-13" value="" style="edgeStyle=orthogonalEdgeStyle;rounded=0;orthogonalLoop=1;jettySize=auto;html=1;" parent="1" source="Do2Q6mcpjUpiM5cCAcLP-8" target="Do2Q6mcpjUpiM5cCAcLP-6" edge="1">
          <mxGeometry relative="1" as="geometry" />
        </mxCell>
        <mxCell id="Do2Q6mcpjUpiM5cCAcLP-8" value="通信管理" style="rounded=0;whiteSpace=wrap;html=1;" parent="1" vertex="1">
          <mxGeometry x="330" y="312.5" width="76" height="60" as="geometry" />
        </mxCell>
        <mxCell id="Do2Q6mcpjUpiM5cCAcLP-15" style="edgeStyle=orthogonalEdgeStyle;rounded=0;orthogonalLoop=1;jettySize=auto;html=1;entryX=0.5;entryY=0;entryDx=0;entryDy=0;" parent="1" source="Do2Q6mcpjUpiM5cCAcLP-9" target="Do2Q6mcpjUpiM5cCAcLP-8" edge="1">
          <mxGeometry relative="1" as="geometry" />
        </mxCell>
        <mxCell id="Do2Q6mcpjUpiM5cCAcLP-9" value="登录界面" style="rounded=0;whiteSpace=wrap;html=1;" parent="1" vertex="1">
          <mxGeometry x="438" y="171" width="76" height="60" as="geometry" />
        </mxCell>
        <mxCell id="Do2Q6mcpjUpiM5cCAcLP-14" value="" style="edgeStyle=orthogonalEdgeStyle;rounded=0;orthogonalLoop=1;jettySize=auto;html=1;" parent="1" source="Do2Q6mcpjUpiM5cCAcLP-10" target="Do2Q6mcpjUpiM5cCAcLP-8" edge="1">
          <mxGeometry relative="1" as="geometry" />
        </mxCell>
        <mxCell id="Do2Q6mcpjUpiM5cCAcLP-10" value="好友列表" style="rounded=0;whiteSpace=wrap;html=1;" parent="1" vertex="1">
          <mxGeometry x="438" y="423.5" width="76" height="60" as="geometry" />
        </mxCell>
        <mxCell id="Do2Q6mcpjUpiM5cCAcLP-17" value="" style="edgeStyle=orthogonalEdgeStyle;rounded=0;orthogonalLoop=1;jettySize=auto;html=1;" parent="1" source="Do2Q6mcpjUpiM5cCAcLP-11" target="Do2Q6mcpjUpiM5cCAcLP-10" edge="1">
          <mxGeometry relative="1" as="geometry" />
        </mxCell>
        <mxCell id="Do2Q6mcpjUpiM5cCAcLP-11" value="聊天窗口" style="rounded=0;whiteSpace=wrap;html=1;" parent="1" vertex="1">
          <mxGeometry x="573" y="423.5" width="76" height="60" as="geometry" />
        </mxCell>
        <mxCell id="Do2Q6mcpjUpiM5cCAcLP-16" value="" style="edgeStyle=orthogonalEdgeStyle;rounded=0;orthogonalLoop=1;jettySize=auto;html=1;" parent="1" source="Do2Q6mcpjUpiM5cCAcLP-12" target="Do2Q6mcpjUpiM5cCAcLP-9" edge="1">
          <mxGeometry relative="1" as="geometry" />
        </mxCell>
        <mxCell id="Do2Q6mcpjUpiM5cCAcLP-12" value="注册界面" style="rounded=0;whiteSpace=wrap;html=1;" parent="1" vertex="1">
          <mxGeometry x="573" y="171" width="76" height="60" as="geometry" />
        </mxCell>
        <mxCell id="Do2Q6mcpjUpiM5cCAcLP-21" style="edgeStyle=orthogonalEdgeStyle;rounded=0;orthogonalLoop=1;jettySize=auto;html=1;endArrow=none;endFill=0;" parent="1" source="Do2Q6mcpjUpiM5cCAcLP-18" edge="1">
          <mxGeometry relative="1" as="geometry">
            <mxPoint x="544.1428571428571" y="453.5" as="targetPoint" />
          </mxGeometry>
        </mxCell>
        <mxCell id="Do2Q6mcpjUpiM5cCAcLP-18" value="聊天窗口" style="rounded=0;whiteSpace=wrap;html=1;" parent="1" vertex="1">
          <mxGeometry x="573" y="317" width="76" height="60" as="geometry" />
        </mxCell>
        <mxCell id="Do2Q6mcpjUpiM5cCAcLP-22" style="edgeStyle=orthogonalEdgeStyle;rounded=0;orthogonalLoop=1;jettySize=auto;html=1;strokeColor=default;endArrow=none;endFill=0;" parent="1" source="Do2Q6mcpjUpiM5cCAcLP-19" edge="1">
          <mxGeometry relative="1" as="geometry">
            <mxPoint x="544" y="452.5" as="targetPoint" />
          </mxGeometry>
        </mxCell>
        <mxCell id="Do2Q6mcpjUpiM5cCAcLP-19" value="聊天窗口" style="rounded=0;whiteSpace=wrap;html=1;" parent="1" vertex="1">
          <mxGeometry x="577" y="527" width="76" height="60" as="geometry" />
        </mxCell>
        <mxCell id="Do2Q6mcpjUpiM5cCAcLP-24" value="发送数据" style="text;html=1;align=center;verticalAlign=middle;resizable=0;points=[];autosize=1;strokeColor=none;fillColor=none;" parent="1" vertex="1">
          <mxGeometry x="146.6" y="278" width="66" height="26" as="geometry" />
        </mxCell>
        <mxCell id="Do2Q6mcpjUpiM5cCAcLP-37" style="edgeStyle=orthogonalEdgeStyle;rounded=0;orthogonalLoop=1;jettySize=auto;html=1;entryX=0;entryY=0.75;entryDx=0;entryDy=0;" parent="1" target="Do2Q6mcpjUpiM5cCAcLP-6" edge="1">
          <mxGeometry relative="1" as="geometry">
            <mxPoint x="137.6" y="381" as="sourcePoint" />
          </mxGeometry>
        </mxCell>
        <mxCell id="Do2Q6mcpjUpiM5cCAcLP-38" value="接收数据" style="text;html=1;align=center;verticalAlign=middle;resizable=0;points=[];autosize=1;strokeColor=none;fillColor=none;" parent="1" vertex="1">
          <mxGeometry x="146.6" y="355" width="66" height="26" as="geometry" />
        </mxCell>
        <mxCell id="9VKRFwBbV2IzOhiWQKv7-20" value="&lt;font style=&quot;font-size: 12px;&quot;&gt;服&lt;br style=&quot;border-color: var(--border-color);&quot;&gt;务&lt;br style=&quot;border-color: var(--border-color);&quot;&gt;器&lt;br style=&quot;border-color: var(--border-color);&quot;&gt;连&lt;br style=&quot;border-color: var(--border-color);&quot;&gt;接&lt;/font&gt;" style="rounded=0;whiteSpace=wrap;html=1;" parent="1" vertex="1">
          <mxGeometry x="1665" y="283.75" width="50" height="135.25" as="geometry" />
        </mxCell>
        <mxCell id="9VKRFwBbV2IzOhiWQKv7-21" value="&lt;font style=&quot;font-size: 12px;&quot;&gt;客&lt;br style=&quot;border-color: var(--border-color);&quot;&gt;户&lt;br style=&quot;border-color: var(--border-color);&quot;&gt;端&lt;br style=&quot;border-color: var(--border-color);&quot;&gt;连&lt;br style=&quot;border-color: var(--border-color);&quot;&gt;接&lt;/font&gt;" style="rounded=0;whiteSpace=wrap;html=1;" parent="1" vertex="1">
          <mxGeometry x="1800" y="283.75" width="50" height="135.25" as="geometry" />
        </mxCell>
      </root>
    </mxGraphModel>
  </diagram>
</mxfile>
